<svg width="72" height="129" viewBox="0 0 72 129" fill="none" xmlns="http://www.w3.org/2000/svg">
<path d="M2.91822 128.947C21.488 128.605 39.1471 121.5 52.0107 109.194C64.8744 96.8884 71.8888 80.3903 71.5108 63.3291C71.1329 46.268 63.3937 30.0414 49.9956 18.219C36.5976 6.39665 18.6382 -0.0530752 0.0684076 0.288709L0.486068 19.1444C13.6128 18.9028 26.308 23.4621 35.779 31.8191C45.2499 40.1762 50.7206 51.6466 50.9878 63.7069C51.2549 75.7672 46.2965 87.4295 37.2034 96.1282C28.1103 104.827 15.6273 109.85 2.50056 110.091L2.91822 128.947Z" fill="url(#paint0_linear_1338_6278)"/>
<defs>
<linearGradient id="paint0_linear_1338_6278" x1="-22.0136" y1="-33.772" x2="-61.6886" y2="68.5568" gradientUnits="userSpaceOnUse">
<stop stop-color="#3F468A"/>
<stop offset="1" stop-color="#BD0F3E"/>
</linearGradient>
</defs>
</svg>
