<svg width="122" height="136" viewBox="0 0 122 136" fill="none" xmlns="http://www.w3.org/2000/svg">
<path d="M82.1291 0.456182C91.1393 5.31981 99.0104 11.7535 105.293 19.3901C111.575 27.0266 116.146 35.7163 118.745 44.9631C121.343 54.2099 121.918 63.8327 120.437 73.2821C118.956 82.7314 115.447 91.8223 110.111 100.036C104.776 108.249 97.718 115.424 89.3406 121.151C80.9632 126.878 71.4303 131.044 61.2863 133.413C51.1424 135.782 40.5859 136.306 30.2198 134.955C19.8536 133.605 9.88072 130.407 0.870496 125.543L3.45096 121.571C11.8889 126.126 21.2284 129.121 30.9362 130.385C40.644 131.65 50.53 131.159 60.0297 128.941C69.5294 126.723 78.4567 122.821 86.3021 117.458C94.1475 112.094 100.757 105.375 105.754 97.6834C110.75 89.9917 114.036 81.4782 115.423 72.629C116.811 63.7798 116.272 54.7682 113.839 46.1087C111.405 37.4491 107.125 29.3113 101.241 22.1598C95.3577 15.0083 87.9865 8.98321 79.5486 4.42848L82.1291 0.456182Z" fill="url(#paint0_linear_1338_6277)"/>
<defs>
<linearGradient id="paint0_linear_1338_6277" x1="-27.1119" y1="25.9638" x2="103.227" y2="110.634" gradientUnits="userSpaceOnUse">
<stop stop-color="#8E2657"/>
<stop offset="0.397755" stop-color="#1A35DD" stop-opacity="0.28"/>
<stop offset="0.968838" stop-color="#BD0D3B"/>
</linearGradient>
</defs>
</svg>
