<svg width="27" height="17" viewBox="0 0 27 17" fill="none" xmlns="http://www.w3.org/2000/svg">
<path d="M12.5303 6.53033C12.8232 6.23744 12.8232 5.76256 12.5303 5.46967L7.75736 0.6967C7.46447 0.403806 6.98959 0.403806 6.6967 0.6967C6.40381 0.989593 6.40381 1.46447 6.6967 1.75736L10.9393 6L6.6967 10.2426C6.40381 10.5355 6.40381 11.0104 6.6967 11.3033C6.98959 11.5962 7.46447 11.5962 7.75736 11.3033L12.5303 6.53033ZM-6.55671e-08 6.75L12 6.75L12 5.25L6.55671e-08 5.25L-6.55671e-08 6.75Z" fill="#0B5298"/>
<path d="M14.4697 10.4697C14.1768 10.7626 14.1768 11.2374 14.4697 11.5303L19.2426 16.3033C19.5355 16.5962 20.0104 16.5962 20.3033 16.3033C20.5962 16.0104 20.5962 15.5355 20.3033 15.2426L16.0607 11L20.3033 6.75736C20.5962 6.46447 20.5962 5.98959 20.3033 5.6967C20.0104 5.40381 19.5355 5.40381 19.2426 5.6967L14.4697 10.4697ZM27 10.25L15 10.25L15 11.75L27 11.75L27 10.25Z" fill="#0B5298"/>
</svg>
