<svg width="102" height="101" viewBox="0 0 102 101" fill="none" xmlns="http://www.w3.org/2000/svg">
<path d="M42.5597 20.8932C43.1154 22.586 44.8491 23.6002 46.6314 23.3126C48.1064 23.0754 49.6045 22.9543 51.1128 22.9543C64.9641 22.9543 76.4697 33.038 78.4645 46.144C78.7308 47.8948 80.2545 49.1915 82.0496 49.1915H98.2133C100.367 49.1915 102.037 47.3524 101.821 45.2408C101.191 39.0423 99.3887 32.9573 96.5181 27.4071C92.8843 20.381 87.5425 14.2178 81.0663 9.58342C74.5901 4.94902 66.9896 1.84596 59.0845 0.612304C52.8592 -0.358978 46.4496 -0.169767 40.2883 1.14462C38.1834 1.59368 36.9235 3.72293 37.5867 5.7437L39.6353 11.9826L42.5597 20.8932Z" fill="#895ADF"/>
<path d="M70.611 96.5847C76.8234 94.0492 82.388 90.3861 87.1434 85.7013C91.8988 81.0139 95.617 75.5343 98.1906 69.414C100.119 64.8275 101.335 60.0493 101.824 55.1576C102.034 53.046 100.365 51.2119 98.2111 51.2119H82.05C80.2472 51.2119 78.7287 52.5162 78.4598 54.2696C76.6621 66.0385 67.1923 75.3703 55.2463 77.1439C53.4639 77.4088 52.1426 78.9073 52.1426 80.6809L52.1451 91.5592V96.6048C52.1451 98.7265 54.0094 100.371 56.1502 100.162C61.1156 99.6802 65.9606 98.4818 70.611 96.5847Z" fill="#E29546"/>
<path d="M22.0035 60.5899L6.6337 65.5144C4.58508 66.1703 3.57869 68.4232 4.44167 70.3683C8.06006 78.527 13.7732 85.5329 21.1713 90.8257C28.5643 96.1161 37.0942 99.2999 46.0826 100.165C48.226 100.372 50.0902 98.7322 50.0902 96.6105V80.684C50.0902 78.9155 48.7765 77.412 46.9994 77.1521C38.0801 75.8453 30.3875 70.3405 26.3697 62.3937C25.5681 60.8093 23.7116 60.0424 22.0035 60.5899Z" fill="#00BDFF"/>
<path d="M25.4892 33.0857L12.4241 23.7211C10.6828 22.4723 8.23467 22.992 7.14889 24.8235C3.9556 30.2022 1.77893 36.1661 0.785343 42.3167C-0.208241 48.4698 -0.0161823 54.8046 1.32567 60.8921C1.78149 62.9659 3.94535 64.2071 5.99398 63.5537L21.3664 58.6443C23.0847 58.0969 24.1115 56.3889 23.8196 54.6331C23.5763 53.1749 23.456 51.694 23.456 50.203C23.456 45.7704 24.5238 41.4917 26.5673 37.6318C27.3996 36.0626 26.9438 34.1302 25.4892 33.0857Z" fill="#699E7B"/>
<path d="M30.6656 4.2128C23.923 7.10899 17.9564 11.3776 13.0704 16.7915C11.6441 18.3733 11.9002 20.8205 13.6364 22.0667L26.7143 31.4516C28.1714 32.4986 30.1765 32.3169 31.4466 31.0555C33.5721 28.9439 36.0432 27.1754 38.7295 25.8434C40.3402 25.0436 41.1341 23.2247 40.5784 21.5344L35.5797 6.37989C34.9165 4.36417 32.6348 3.36766 30.6656 4.2128Z" fill="#A56D7A"/>
</svg>
