<svg width="103" height="101" viewBox="0 0 103 101" fill="none" xmlns="http://www.w3.org/2000/svg">
<path d="M43.0597 20.8932C43.6154 22.586 45.3491 23.6002 47.1314 23.3126C48.6064 23.0754 50.1045 22.9543 51.6128 22.9543C65.4641 22.9543 76.9697 33.038 78.9645 46.144C79.2308 47.8948 80.7545 49.1915 82.5496 49.1915H98.7133C100.867 49.1915 102.537 47.3524 102.321 45.2408C101.691 39.0423 99.8887 32.9573 97.0181 27.4071C93.3843 20.381 88.0425 14.2178 81.5663 9.58342C75.0901 4.94902 67.4896 1.84596 59.5845 0.612304C53.3592 -0.358978 46.9496 -0.169767 40.7883 1.14462C38.6834 1.59368 37.4235 3.72293 38.0867 5.7437L40.1353 11.9826L43.0597 20.8932Z" fill="#895ADF"/>
<path d="M71.111 96.5847C77.3234 94.0492 82.888 90.3861 87.6434 85.7013C92.3988 81.0139 96.117 75.5343 98.6906 69.414C100.619 64.8275 101.835 60.0493 102.324 55.1576C102.534 53.046 100.865 51.2119 98.7111 51.2119H82.55C80.7472 51.2119 79.2287 52.5162 78.9598 54.2696C77.1621 66.0385 67.6923 75.3703 55.7463 77.1439C53.9639 77.4088 52.6426 78.9073 52.6426 80.6809L52.6451 91.5592V96.6048C52.6451 98.7265 54.5094 100.371 56.6502 100.162C61.6156 99.6802 66.4606 98.4818 71.111 96.5847Z" fill="#E29546"/>
<path d="M22.5035 60.5899L7.1337 65.5144C5.08508 66.1703 4.07869 68.4232 4.94167 70.3683C8.56006 78.527 14.2732 85.5329 21.6713 90.8257C29.0643 96.1161 37.5942 99.2999 46.5826 100.165C48.726 100.372 50.5902 98.7322 50.5902 96.6105V80.684C50.5902 78.9155 49.2765 77.412 47.4994 77.1521C38.5801 75.8453 30.8875 70.3405 26.8697 62.3937C26.0681 60.8093 24.2116 60.0424 22.5035 60.5899Z" fill="#00BDFF"/>
<path d="M25.9892 33.0857L12.9241 23.7211C11.1828 22.4723 8.73467 22.992 7.64889 24.8235C4.4556 30.2022 2.27893 36.1661 1.28534 42.3167C0.291759 48.4698 0.483818 54.8046 1.82567 60.8921C2.28149 62.9659 4.44535 64.2071 6.49398 63.5537L21.8664 58.6443C23.5847 58.0969 24.6115 56.3889 24.3196 54.6331C24.0763 53.1749 23.956 51.694 23.956 50.203C23.956 45.7704 25.0238 41.4917 27.0673 37.6318C27.8996 36.0626 27.4438 34.1302 25.9892 33.0857Z" fill="#699E7B"/>
<path d="M31.1656 4.2128C24.423 7.10899 18.4564 11.3776 13.5704 16.7915C12.1441 18.3733 12.4002 20.8205 14.1364 22.0667L27.2143 31.4516C28.6714 32.4986 30.6765 32.3169 31.9466 31.0555C34.0721 28.9439 36.5432 27.1754 39.2295 25.8434C40.8402 25.0436 41.6341 23.2247 41.0784 21.5344L36.0797 6.37989C35.4165 4.36417 33.1348 3.36766 31.1656 4.2128Z" fill="#A56D7A"/>
</svg>
