<svg width="27" height="18" viewBox="0 0 27 18" fill="none" xmlns="http://www.w3.org/2000/svg">
<path d="M12.5303 7.03033C12.8232 6.73744 12.8232 6.26256 12.5303 5.96967L7.75736 1.1967C7.46447 0.903806 6.98959 0.903806 6.6967 1.1967C6.40381 1.48959 6.40381 1.96447 6.6967 2.25736L10.9393 6.5L6.6967 10.7426C6.40381 11.0355 6.40381 11.5104 6.6967 11.8033C6.98959 12.0962 7.46447 12.0962 7.75736 11.8033L12.5303 7.03033ZM-6.55671e-08 7.25L12 7.25L12 5.75L6.55671e-08 5.75L-6.55671e-08 7.25Z" fill="#0B5298"/>
<path d="M14.4697 10.9697C14.1768 11.2626 14.1768 11.7374 14.4697 12.0303L19.2426 16.8033C19.5355 17.0962 20.0104 17.0962 20.3033 16.8033C20.5962 16.5104 20.5962 16.0355 20.3033 15.7426L16.0607 11.5L20.3033 7.25736C20.5962 6.96447 20.5962 6.48959 20.3033 6.1967C20.0104 5.90381 19.5355 5.90381 19.2426 6.1967L14.4697 10.9697ZM27 10.75L15 10.75L15 12.25L27 12.25L27 10.75Z" fill="#0B5298"/>
</svg>
