<svg width="102" height="101" viewBox="0 0 102 101" fill="none" xmlns="http://www.w3.org/2000/svg">
<path d="M42.4015 20.8932C42.9572 22.586 44.6909 23.6002 46.4732 23.3126C47.9482 23.0754 49.4463 22.9543 50.9546 22.9543C64.8059 22.9543 76.3115 33.038 78.3063 46.144C78.5726 47.8948 80.0963 49.1915 81.8914 49.1915H98.0551C100.209 49.1915 101.878 47.3524 101.663 45.2408C101.033 39.0423 99.2305 32.9573 96.3599 27.4071C92.7261 20.381 87.3843 14.2178 80.9081 9.58342C74.4319 4.94902 66.8314 1.84596 58.9263 0.612304C52.701 -0.358978 46.2914 -0.169767 40.1301 1.14462C38.0252 1.59368 36.7653 3.72293 37.4285 5.7437L39.4771 11.9826L42.4015 20.8932Z" fill="#895ADF"/>
<path d="M70.4528 96.5847C76.6652 94.0492 82.2298 90.3861 86.9852 85.7013C91.7406 81.0139 95.4588 75.5343 98.0324 69.414C99.9607 64.8275 101.177 60.0493 101.666 55.1576C101.876 53.046 100.207 51.2119 98.0529 51.2119H81.8918C80.089 51.2119 78.5704 52.5162 78.3016 54.2696C76.5039 66.0385 67.0341 75.3703 55.088 77.1439C53.3057 77.4088 51.9844 78.9073 51.9844 80.6809L51.9869 91.5592V96.6048C51.9869 98.7265 53.8512 100.371 55.992 100.162C60.9574 99.6802 65.8024 98.4818 70.4528 96.5847Z" fill="#E29546"/>
<path d="M21.8453 60.5899L6.4755 65.5144C4.42687 66.1703 3.42048 68.4232 4.28347 70.3683C7.90186 78.527 13.615 85.5329 21.0131 90.8257C28.4061 96.1161 36.936 99.2999 45.9244 100.165C48.0678 100.372 49.932 98.7322 49.932 96.6105V80.684C49.932 78.9155 48.6183 77.412 46.8412 77.1521C37.9219 75.8453 30.2293 70.3405 26.2115 62.3937C25.4099 60.8093 23.5534 60.0424 21.8453 60.5899Z" fill="#00BDFF"/>
<path d="M25.331 33.0857L12.2659 23.7211C10.5246 22.4723 8.07646 22.992 6.99069 24.8235C3.79739 30.2022 1.62072 36.1661 0.62714 42.3167C-0.366444 48.4698 -0.174385 54.8046 1.16747 60.8921C1.62329 62.9659 3.78715 64.2071 5.83578 63.5537L21.2082 58.6443C22.9265 58.0969 23.9533 56.3889 23.6614 54.6331C23.4181 53.1749 23.2978 51.694 23.2978 50.203C23.2978 45.7704 24.3656 41.4917 26.4091 37.6318C27.2414 36.0626 26.7856 34.1302 25.331 33.0857Z" fill="#699E7B"/>
<path d="M30.5074 4.2128C23.7648 7.10899 17.7982 11.3776 12.9122 16.7915C11.4859 18.3733 11.742 20.8205 13.4782 22.0667L26.5561 31.4516C28.0132 32.4986 30.0183 32.3169 31.2884 31.0555C33.4139 28.9439 35.885 27.1754 38.5713 25.8434C40.182 25.0436 40.9759 23.2247 40.4202 21.5344L35.4215 6.37989C34.7583 4.36417 32.4766 3.36766 30.5074 4.2128Z" fill="#A56D7A"/>
</svg>
