<svg width="103" height="101" viewBox="0 0 103 101" fill="none" xmlns="http://www.w3.org/2000/svg">
<path d="M43.0851 20.8932C43.6408 22.586 45.3745 23.6002 47.1568 23.3126C48.6318 23.0754 50.1299 22.9543 51.6382 22.9543C65.4894 22.9543 76.9951 33.038 78.9899 46.144C79.2562 47.8948 80.7799 49.1915 82.575 49.1915H98.7387C100.892 49.1915 102.562 47.3524 102.347 45.2408C101.717 39.0423 99.9141 32.9573 97.0434 27.4071C93.4097 20.381 88.0679 14.2178 81.5917 9.58342C75.1154 4.94902 67.515 1.84596 59.6099 0.612304C53.3846 -0.358978 46.975 -0.169767 40.8137 1.14462C38.7088 1.59368 37.4489 3.72293 38.1121 5.7437L40.1607 11.9826L43.0851 20.8932Z" fill="#895ADF"/>
<path d="M71.1364 96.5847C77.3488 94.0492 82.9134 90.3861 87.6688 85.7013C92.4242 81.0139 96.1424 75.5343 98.716 69.414C100.644 64.8275 101.861 60.0493 102.35 55.1576C102.56 53.046 100.89 51.2119 98.7365 51.2119H82.5754C80.7726 51.2119 79.254 52.5162 78.9852 54.2696C77.1875 66.0385 67.7177 75.3703 55.7716 77.1439C53.9893 77.4088 52.668 78.9073 52.668 80.6809L52.6705 91.5592V96.6048C52.6705 98.7265 54.5348 100.371 56.6756 100.162C61.641 99.6802 66.486 98.4818 71.1364 96.5847Z" fill="#E29546"/>
<path d="M22.5289 60.5899L7.15909 65.5144C5.11047 66.1703 4.10408 68.4232 4.96706 70.3683C8.58545 78.527 14.2986 85.5329 21.6967 90.8257C29.0897 96.1161 37.6196 99.2999 46.608 100.165C48.7514 100.372 50.6156 98.7322 50.6156 96.6105V80.684C50.6156 78.9155 49.3019 77.412 47.5247 77.1521C38.6055 75.8453 30.9129 70.3405 26.8951 62.3937C26.0935 60.8093 24.237 60.0424 22.5289 60.5899Z" fill="#00BDFF"/>
<path d="M26.0146 33.0857L12.9495 23.7211C11.2082 22.4723 8.76006 22.992 7.67428 24.8235C4.48099 30.2022 2.30432 36.1661 1.31073 42.3167C0.317149 48.4698 0.509208 54.8046 1.85106 60.8921C2.30688 62.9659 4.47074 64.2071 6.51937 63.5537L21.8918 58.6443C23.6101 58.0969 24.6369 56.3889 24.345 54.6331C24.1017 53.1749 23.9814 51.694 23.9814 50.203C23.9814 45.7704 25.0492 41.4917 27.0927 37.6318C27.925 36.0626 27.4692 34.1302 26.0146 33.0857Z" fill="#699E7B"/>
<path d="M31.191 4.2128C24.4484 7.10899 18.4818 11.3776 13.5958 16.7915C12.1695 18.3733 12.4255 20.8205 14.1618 22.0667L27.2397 31.4516C28.6968 32.4986 30.7019 32.3169 31.972 31.0555C34.0975 28.9439 36.5686 27.1754 39.2549 25.8434C40.8656 25.0436 41.6595 23.2247 41.1038 21.5344L36.1051 6.37989C35.4419 4.36417 33.1602 3.36766 31.191 4.2128Z" fill="#A56D7A"/>
</svg>
