<svg width="28" height="35" viewBox="0 0 28 35" fill="none" xmlns="http://www.w3.org/2000/svg">
<mask id="path-1-inside-1_1338_6362" fill="white">
<path d="M27.1765 27.1323L27.8353 28C27.9271 28.1209 27.9829 28.2647 27.9967 28.4153C28.0104 28.5658 27.9815 28.7172 27.9131 28.8524C27.8447 28.9876 27.7395 29.1013 27.6094 29.1808C27.4793 29.2602 27.3294 29.3023 27.1765 29.3023H0.82353C0.670591 29.3023 0.520673 29.2602 0.390575 29.1808C0.260477 29.1013 0.155339 28.9876 0.0869426 28.8524C0.0185461 28.7172 -0.0104068 28.5658 0.00332802 28.4153C0.0170628 28.2647 0.0729425 28.1209 0.164706 28L0.82353 27.1323V13.0233C0.82353 9.56927 2.21176 6.25676 4.68283 3.81442C7.1539 1.37209 10.5054 0 14 0C17.4946 0 20.8461 1.37209 23.3172 3.81442C25.7882 6.25676 27.1765 9.56927 27.1765 13.0233V27.1323ZM9.88235 30.9302H18.1176C18.1176 32.0096 17.6838 33.0448 16.9116 33.808C16.1394 34.5712 15.0921 35 14 35C12.9079 35 11.8606 34.5712 11.0884 33.808C10.3162 33.0448 9.88235 32.0096 9.88235 30.9302Z"/>
</mask>
<path d="M27.1765 27.1323H25.1765V27.8056L25.5836 28.3418L27.1765 27.1323ZM27.8353 28L29.4285 26.791L29.4282 26.7905L27.8353 28ZM0.82353 29.3023V31.3023V29.3023ZM0.164706 28L-1.42816 26.7905L-1.42852 26.791L0.164706 28ZM0.82353 27.1323L2.41639 28.3418L2.82353 27.8056V27.1323H0.82353ZM14 0V-2V0ZM27.1765 13.0233H29.1765H27.1765ZM18.1176 30.9302H20.1176V28.9302H18.1176V30.9302ZM9.88235 30.9302V28.9302H7.88235V30.9302H9.88235ZM25.5836 28.3418L26.2424 29.2095L29.4282 26.7905L28.7693 25.9229L25.5836 28.3418ZM26.2421 29.209C26.1084 29.0329 26.0254 28.8211 26.0049 28.597L29.9884 28.2336C29.9405 27.7084 29.7457 27.209 29.4285 26.791L26.2421 29.209ZM26.0049 28.597C25.9845 28.3729 26.0278 28.1485 26.1284 27.9496L29.6977 29.7552C29.9351 29.2859 30.0363 28.7588 29.9884 28.2336L26.0049 28.597ZM26.1284 27.9496C26.2289 27.7509 26.3818 27.5871 26.5669 27.474L28.652 30.8875C29.0973 30.6155 29.4604 30.2243 29.6977 29.7552L26.1284 27.9496ZM26.5669 27.474C26.7518 27.361 26.9628 27.3023 27.1765 27.3023V31.3023C27.696 31.3023 28.2069 31.1594 28.652 30.8875L26.5669 27.474ZM27.1765 27.3023H0.82353V31.3023H27.1765V27.3023ZM0.82353 27.3023C1.03722 27.3023 1.24824 27.361 1.43315 27.474L-0.651998 30.8875C-0.206894 31.1594 0.303961 31.3023 0.82353 31.3023V27.3023ZM1.43315 27.474C1.61826 27.5871 1.77106 27.7509 1.87158 27.9496L-1.69769 29.7552C-1.46039 30.2243 -1.09731 30.6155 -0.651998 30.8875L1.43315 27.474ZM1.87158 27.9496C1.9722 28.1485 2.0155 28.3729 1.99506 28.597L-1.9884 28.2336C-2.03632 28.7588 -1.93511 29.2859 -1.69769 29.7552L1.87158 27.9496ZM1.99506 28.597C1.97461 28.8211 1.89157 29.0329 1.75793 29.209L-1.42852 26.791C-1.74569 27.209 -1.94049 27.7084 -1.9884 28.2336L1.99506 28.597ZM1.75757 29.2095L2.41639 28.3418L-0.769334 25.9229L-1.42816 26.7905L1.75757 29.2095ZM2.82353 27.1323V13.0233H-1.17647V27.1323H2.82353ZM2.82353 13.0233C2.82353 10.1073 3.9953 7.30599 6.08875 5.23688L3.27691 2.39196C0.428228 5.20752 -1.17647 9.03124 -1.17647 13.0233H2.82353ZM6.08875 5.23688C8.18299 3.16699 11.0283 2 14 2V-2C9.98245 -2 6.1248 -0.422811 3.27691 2.39196L6.08875 5.23688ZM14 2C16.9717 2 19.817 3.16699 21.9113 5.23688L24.7231 2.39196C21.8752 -0.422812 18.0176 -2 14 -2V2ZM21.9113 5.23688C24.0047 7.30599 25.1765 10.1073 25.1765 13.0233H29.1765C29.1765 9.03124 27.5718 5.20752 24.7231 2.39196L21.9113 5.23688ZM25.1765 13.0233V27.1323H29.1765V13.0233H25.1765ZM9.88235 32.9302H18.1176V28.9302H9.88235V32.9302ZM16.1176 30.9302C16.1176 31.4716 15.9003 31.9955 15.5057 32.3855L18.3175 35.2304C19.4674 34.094 20.1176 32.5476 20.1176 30.9302H16.1176ZM15.5057 32.3855C15.1103 32.7763 14.5691 33 14 33V37C15.615 37 17.1685 36.3661 18.3175 35.2304L15.5057 32.3855ZM14 33C13.4309 33 12.8897 32.7763 12.4943 32.3855L9.68246 35.2304C10.8315 36.3661 12.385 37 14 37V33ZM12.4943 32.3855C12.0997 31.9955 11.8824 31.4716 11.8824 30.9302H7.88235C7.88235 32.5476 8.53264 34.094 9.68246 35.2304L12.4943 32.3855Z" fill="black" mask="url(#path-1-inside-1_1338_6362)"/>
</svg>
